<svg width="97" height="91" viewBox="0 0 97 91" fill="none" xmlns="http://www.w3.org/2000/svg">
<path d="M57.5633 1H40.0874V13.0482C36.7708 13.8526 33.6523 15.0995 30.794 16.7267L21.7085 8.17042L9.35101 19.8036L18.557 28.4714C16.922 31.137 15.6851 34.0366 14.8928 37.1081H1.7373V53.5624H15.1433C15.9996 56.515 17.2812 59.2958 18.924 61.8535L9.34906 70.8686L21.7065 82.5036L31.3979 73.377C34.0892 74.8396 37.0038 75.9585 40.0854 76.7081V89.6704H57.5614V76.7081C60.643 75.9603 63.5576 74.8396 66.2489 73.377L75.9403 82.5036L88.2978 70.8705L78.7229 61.8553C80.3676 59.2958 81.6472 56.515 82.5035 53.5624H95.9095V37.1081H82.754C81.9637 34.0366 80.7248 31.137 79.0899 28.4714L88.2958 19.8036L75.9403 8.16859L66.8509 16.7267C63.9926 15.0995 60.876 13.8545 57.5595 13.0482V1H57.5633Z" stroke="white" stroke-width="2" stroke-linejoin="round"/>
<path d="M49.0226 60.3893C57.6126 60.3893 64.5761 53.5864 64.5761 45.1946C64.5761 36.8029 57.6126 30 49.0226 30C40.4327 30 33.4692 36.8029 33.4692 45.1946C33.4692 53.5864 40.4327 60.3893 49.0226 60.3893Z" stroke="#6ECCC3" stroke-width="2"/>
</svg>